<?xml version="1.0" encoding="UTF-8"?>
<!-- Generated by Pixelmator Pro 3.8 -->
<svg width="1024" height="1024" viewBox="0 0 1024 1024" xmlns="http://www.w3.org/2000/svg">
    <path id="Rectangular-Speech-Bubble" fill="#ff2548" fill-rule="evenodd" stroke="none" d="M 368.172668 736.470825 C 385.298828 741.245239 403.351318 743.797607 422 743.797607 L 603 743.797607 C 713.456909 743.797607 803 654.254578 803 543.797607 L 803 480.380981 C 803 369.924011 713.456909 280.380981 603 280.380981 L 422 280.380981 C 311.54306 280.380981 222 369.924011 222 480.380981 L 222 543.797607 C 222 622.743408 235.740784 673.005859 302.166107 705.528687 C 302.166107 705.528687 306.911591 745.491089 293 780.797607 C 329.345978 772.369507 368.172668 736.470825 368.172668 736.470825 Z"/>
    <clipPath id="clipPath1">
        <path clip-rule="evenodd" d="M 0 1024 L 624 1024 L 624 0 L 0 0 Z"/>
    </clipPath>
    <path id="Rectangular-Speech-Bubble-copy-2" fill="#ffffff" fill-rule="evenodd" stroke="none" clip-path="url(#clipPath1)" d="M 368.172668 736.470825 C 385.298828 741.245239 403.351318 743.797607 422 743.797607 L 603 743.797607 C 713.456909 743.797607 803 654.254578 803 543.797607 L 803 480.380981 C 803 369.924011 713.456909 280.380981 603 280.380981 L 422 280.380981 C 311.54306 280.380981 222 369.924011 222 480.380981 L 222 543.797607 C 222 622.743408 235.740784 673.005859 302.166107 705.528687 C 302.166107 705.528687 306.911591 745.491089 293 780.797607 C 329.345978 772.369507 368.172668 736.470825 368.172668 736.470825 Z"/>
    <clipPath id="clipPath2">
        <path clip-rule="evenodd" d="M 0 1024 L 400 1024 L 400 0 L 0 0 Z"/>
    </clipPath>
    <path id="Rectangular-Speech-Bubble-copy" fill="#1bb286" fill-rule="evenodd" stroke="none" clip-path="url(#clipPath2)" d="M 368.172668 736.470825 C 385.298828 741.245239 403.351318 743.797607 422 743.797607 L 603 743.797607 C 713.456909 743.797607 803 654.254578 803 543.797607 L 803 480.380981 C 803 369.924011 713.456909 280.380981 603 280.380981 L 422 280.380981 C 311.54306 280.380981 222 369.924011 222 480.380981 L 222 543.797607 C 222 622.743408 235.740784 673.005859 302.166107 705.528687 C 302.166107 705.528687 306.911591 745.491089 293 780.797607 C 329.345978 772.369507 368.172668 736.470825 368.172668 736.470825 Z"/>
</svg>
